<svg xmlns="http://www.w3.org/2000/svg" width="199" height="197" viewBox="0 0 199 197" fill="none">
<path d="M166.223 94.036C169.34 95.9986 169.337 100.543 166.218 102.502L83.8974 154.181C80.5662 156.273 76.2363 153.877 76.2389 149.943L76.3079 46.4745C76.3105 42.5413 80.6436 40.151 83.972 42.2467L166.223 94.036Z" fill="white"/>
<rect x="57" y="47" width="7" height="103" rx="3.5" fill="#D9D9D9" fill-opacity="0.85"/>
<rect x="37" y="70" width="7" height="56" rx="3.5" fill="#D9D9D9" fill-opacity="0.87"/>
<path d="M99.5 193C152.202 193 195 150.732 195 98.5C195 46.2678 152.202 4 99.5 4C46.7984 4 4 46.2678 4 98.5C4 150.732 46.7984 193 99.5 193Z" stroke="white" stroke-width="8"/>
</svg>